<?xml version="1.0" encoding="iso-8859-1"?>
<!-- Uploaded to: SVG Repo, www.svgrepo.com, Generator: SVG Repo Mixer Tools -->
<!DOCTYPE svg PUBLIC "-//W3C//DTD SVG 1.1//EN" "http://www.w3.org/Graphics/SVG/1.1/DTD/svg11.dtd">
<svg fill="#000000" height="800px" width="800px" version="1.1" id="Capa_1" xmlns="http://www.w3.org/2000/svg" xmlns:xlink="http://www.w3.org/1999/xlink" 
	 viewBox="0 0 465.647 465.647" xml:space="preserve">
<g id="XMLID_117_">
	<path id="XMLID_118_" d="M395.675,327.22c33.594,0,60.802-27.224,60.802-60.801c0-33.577-27.208-60.809-60.802-60.809
		c-33.576,0-60.801,27.232-60.801,60.809C334.874,299.995,362.099,327.22,395.675,327.22z"/>
	<path id="XMLID_119_" d="M146.247,66.868c3.805,1.433,7.896,1.275,11.909,0.049c-0.335,13.906,3.819,27.997,13.293,39.626
		c21.063,25.887,59.145,29.788,85.031,8.717c25.888-21.071,29.789-59.136,8.709-85.032c-20.681-25.417-57.681-29.509-83.535-9.711
		c-1.8-7.284-5.986-13-12.163-15.325c-12.1-4.56-27.129,5.558-33.545,22.584C129.53,44.811,134.163,62.316,146.247,66.868z"/>
	<path id="XMLID_120_" d="M433.041,395.233h-80.988l-12.052-21.764c4.043-9.918,4.951-21.182,1.672-32.239
		c-6.528-22.004-27.208-35.814-49.147-34.756c4.791-3.375,8.82-7.96,11.272-13.754c7.02-16.582-0.717-35.719-17.307-42.748
		l-59.988-25.434l-36.729-37.11c0.319-1.33,0.446-2.237,0.256-2.237c5.714-19.456-1.067-41.306-18.5-53.765
		c-22.019-15.745-52.634-10.65-68.364,11.368c0,0-36.902,60.49-55.038,81.219C37.684,235.851,28.704,241.63,0,265.049v39.873
		c2.005-0.111,4.299-0.246,7.165-0.406c8.676-0.279,21.062-0.685,35.933-1.171c14.87-0.31,32.223-0.597,50.817-0.469
		c9.283,0.063,18.898,0.135,28.658,0.199c2.754,0.047,5.54,0.096,8.31,0.151c1.417-1.648,2.963-3.272,4.315-4.935
		c10.173-12.069,19.773-28.436,28.053-44.968l21.428,21.66c2.993,3.024,6.544,5.429,10.46,7.083l65.912,27.941
		c3.103,1.314,6.288,1.95,9.488,2.277c-24.104,9.019-84.857,30.568-120.454,32.589c-24.44,0.271-80.561-1.003-150.085,0.978v67.337
		v47.182c40.248,1.146,114.136,1.925,154.208,0.039c48.064-3.717,101.892-26.197,135.213-43.645l14.886,26.874
		c5.748,10.372,16.669,16.805,28.53,16.805h100.204c18.007,0,32.606-14.601,32.606-32.605
		C465.647,409.832,451.048,395.233,433.041,395.233z"/>
</g>
</svg>